<?xml version="1.0" encoding="UTF-8"?>
<svg xmlns="http://www.w3.org/2000/svg" xmlns:xlink="http://www.w3.org/1999/xlink" width="30px" height="30px" viewBox="0 0 30 30" version="1.1">
<g id="surface1">
<path style=" stroke:none;fill-rule:nonzero;fill:rgb(80%,80%,80%);fill-opacity:1;" d="M 3.925781 8.710938 C 4.570312 9.054688 13.523438 13.933594 13.859375 14.109375 C 14.191406 14.285156 14.53125 14.367188 15.058594 14.367188 C 15.585938 14.367188 15.925781 14.285156 16.257812 14.109375 C 16.59375 13.933594 25.546875 9.054688 26.191406 8.710938 C 26.429688 8.589844 26.835938 8.367188 26.921875 8.117188 C 27.078125 7.671875 26.914062 7.5 26.261719 7.5 L 3.855469 7.5 C 3.203125 7.5 3.039062 7.675781 3.195312 8.117188 C 3.28125 8.375 3.6875 8.589844 3.925781 8.710938 Z M 3.925781 8.710938 "/>
<path style=" stroke:none;fill-rule:nonzero;fill:rgb(80%,80%,80%);fill-opacity:1;" d="M 26.703125 8.976562 C 26.21875 9.222656 21.90625 12.292969 19.054688 14.136719 L 23.871094 19.558594 C 23.988281 19.675781 24.039062 19.816406 23.976562 19.886719 C 23.90625 19.953125 23.753906 19.914062 23.632812 19.804688 L 17.855469 14.929688 C 16.980469 15.492188 16.367188 15.878906 16.261719 15.9375 C 15.808594 16.164062 15.492188 16.195312 15.058594 16.195312 C 14.625 16.195312 14.308594 16.164062 13.859375 15.9375 C 13.746094 15.878906 13.136719 15.492188 12.265625 14.929688 L 6.484375 19.804688 C 6.367188 19.921875 6.210938 19.957031 6.140625 19.886719 C 6.070312 19.820312 6.125 19.675781 6.242188 19.558594 L 11.050781 14.136719 C 8.195312 12.292969 3.835938 9.222656 3.355469 8.976562 C 2.839844 8.710938 2.8125 9.023438 2.8125 9.261719 L 2.8125 21.273438 C 2.8125 21.820312 3.613281 22.5 4.1875 22.5 L 25.929688 22.5 C 26.5 22.5 27.1875 21.8125 27.1875 21.273438 L 27.1875 9.261719 C 27.1875 9.015625 27.222656 8.710938 26.703125 8.976562 Z M 26.703125 8.976562 "/>
</g>
</svg>
