<?xml version="1.0" encoding="UTF-8"?>
<svg xmlns="http://www.w3.org/2000/svg" xmlns:xlink="http://www.w3.org/1999/xlink" viewBox="0 0 80 80" width="80px" height="80px">
<g id="surface312153">
<path style=" stroke:none;fill-rule:nonzero;fill:rgb(100%,100%,100%);fill-opacity:1;" d="M 68.125 66.875 L 11.875 66.875 C 8.4375 66.875 5.625 64.0625 5.625 60.625 L 5.625 23.125 C 5.625 19.6875 8.4375 16.875 11.875 16.875 L 68.125 16.875 C 71.5625 16.875 74.375 19.6875 74.375 23.125 L 74.375 60.625 C 74.375 64.0625 71.5625 66.875 68.125 66.875 Z M 68.125 66.875 "/>
<path style=" stroke:none;fill-rule:nonzero;fill:rgb(100%,100%,100%);fill-opacity:1;" d="M 47.4375 36.625 L 47.4375 38.75 L 53.4375 38.75 L 53.4375 41.0625 L 47.4375 41.0625 L 47.4375 43.375 L 54.1875 43.375 L 57.375 40 L 54.3125 36.625 Z M 17.5625 40.8125 L 21.3125 40.8125 L 19.4375 36.1875 Z M 17.5625 40.8125 "/>
<path style=" stroke:none;fill-rule:nonzero;fill:rgb(100%,100%,100%);fill-opacity:1;" d="M 69.875 31.9375 L 61.75 31.9375 C 61.5625 31.9375 61.4375 32 61.3125 32.125 L 59.6875 33.875 C 59.4375 34.125 59 34.125 58.75 33.875 L 57.25 32.1875 C 57.125 32.0625 56.9375 32 56.75 32 L 36.4375 32 C 36.1875 32 35.9375 32.125 35.875 32.375 L 34.8125 34.875 C 34.625 35.375 33.875 35.375 33.6875 34.875 L 32.5625 32.375 C 32.4375 32.125 32.25 32 32 32 L 24.5625 32 C 24.1875 32 23.9375 32.25 23.9375 32.625 L 23.9375 33.875 L 23.1875 32.3125 C 23.0625 32.125 22.875 31.9375 22.625 31.9375 L 16.1875 31.9375 C 15.9375 31.9375 15.6875 32.0625 15.625 32.3125 L 9.125 47.1875 C 8.9375 47.625 9.25 48.0625 9.6875 48.0625 L 16.75 48.0625 C 17 48.0625 17.25 47.9375 17.3125 47.6875 L 18.0625 45.875 C 18.1875 45.625 18.375 45.5 18.625 45.5 L 20.1875 45.5 C 20.4375 45.5 20.6875 45.625 20.75 45.875 L 21.5 47.6875 C 21.625 47.9375 21.8125 48.0625 22.0625 48.0625 L 30.3125 48.0625 C 30.6875 48.0625 30.9375 47.8125 30.9375 47.4375 L 30.9375 46.125 L 31.625 47.6875 C 31.75 47.9375 31.9375 48.0625 32.1875 48.0625 L 36.1875 48.0625 C 36.4375 48.0625 36.6875 47.9375 36.75 47.6875 L 37.4375 46.0625 L 37.4375 47.4375 C 37.4375 47.8125 37.6875 48.0625 38.0625 48.0625 L 56.5 48.0625 C 56.6875 48.0625 56.8125 48 56.9375 47.875 L 58.625 46.0625 C 58.875 45.8125 59.3125 45.8125 59.5625 46.0625 L 61.125 47.8125 C 61.25 47.9375 61.4375 48 61.5625 48 L 69.8125 48 C 70.375 48 70.625 47.375 70.3125 46.9375 L 64.5 40.375 C 64.3125 40.125 64.3125 39.8125 64.5 39.5625 L 70.3125 32.9375 C 70.6875 32.5625 70.4375 31.9375 69.875 31.9375 Z M 41.5625 45.75 L 40.0625 45.75 C 39.6875 45.75 39.4375 45.5 39.4375 45.125 L 39.4375 39.6875 C 39.4375 39 38.5 38.8125 38.25 39.4375 L 35.625 45.4375 C 35.5 45.6875 35.3125 45.8125 35.0625 45.8125 L 33.4375 45.8125 C 33.1875 45.8125 32.9375 45.6875 32.875 45.4375 L 30.25 39.4375 C 30 38.8125 29.0625 39 29.0625 39.6875 L 29.0625 45.1875 C 29.0625 45.5625 28.8125 45.8125 28.4375 45.8125 L 23.875 45.8125 C 23.625 45.8125 23.375 45.6875 23.3125 45.4375 L 22.5 43.5625 C 22.375 43.3125 22.1875 43.1875 21.9375 43.1875 L 17 43.1875 C 16.75 43.1875 16.5 43.3125 16.4375 43.5625 L 15.6875 45.375 C 15.5625 45.625 15.375 45.75 15.125 45.75 L 13.5 45.75 C 13.0625 45.75 12.75 45.3125 12.9375 44.875 L 17.375 34.5625 C 17.5 34.3125 17.6875 34.1875 17.9375 34.1875 L 21.25 34.1875 C 21.5 34.1875 21.75 34.3125 21.8125 34.5625 L 25.125 42.3125 C 25.375 42.9375 26.3125 42.75 26.3125 42.0625 L 26.3125 34.875 C 26.3125 34.5 26.5625 34.25 26.9375 34.25 L 30.4375 34.25 C 30.6875 34.25 30.875 34.375 31 34.625 L 33.875 40.8125 C 34.125 41.3125 34.8125 41.3125 35 40.8125 L 37.625 34.625 C 37.75 34.375 37.9375 34.25 38.1875 34.25 L 41.625 34.25 C 42 34.25 42.25 34.5 42.25 34.875 L 42.25 45.1875 C 42.1875 45.5 41.875 45.75 41.5625 45.75 Z M 64.6875 45.75 L 62.8125 45.75 C 62.625 45.75 62.4375 45.6875 62.375 45.5625 L 59.625 42.4375 C 59.375 42.1875 58.9375 42.1875 58.6875 42.4375 L 55.8125 45.5625 C 55.6875 45.6875 55.5 45.75 55.375 45.75 L 45.375 45.75 C 45 45.75 44.75 45.5 44.75 45.125 L 44.75 34.875 C 44.75 34.5 45 34.25 45.375 34.25 L 55.5625 34.25 C 55.75 34.25 55.9375 34.3125 56 34.4375 L 58.75 37.5 C 59 37.75 59.4375 37.75 59.6875 37.5 L 62.5625 34.4375 C 62.6875 34.3125 62.875 34.25 63 34.25 L 64.75 34.25 C 65.3125 34.25 65.5625 34.875 65.1875 35.3125 L 61.3125 39.6875 C 61.125 39.9375 61.125 40.3125 61.3125 40.5 L 65.1875 44.8125 C 65.5 45.125 65.1875 45.75 64.6875 45.75 Z M 64.6875 45.75 "/>
<path style=" stroke:none;fill-rule:nonzero;fill:rgb(100%,100%,100%);fill-opacity:1;" d="M 68.125 66.875 L 11.875 66.875 C 7.375 66.875 3.75 63.25 3.75 58.75 L 3.75 21.25 C 3.75 16.75 7.375 13.125 11.875 13.125 L 68.125 13.125 C 72.625 13.125 76.25 16.75 76.25 21.25 L 76.25 58.75 C 76.25 63.25 72.625 66.875 68.125 66.875 Z M 11.875 16.875 C 9.4375 16.875 7.5 18.8125 7.5 21.25 L 7.5 58.75 C 7.5 61.1875 9.4375 63.125 11.875 63.125 L 68.125 63.125 C 70.5625 63.125 72.5 61.1875 72.5 58.75 L 72.5 21.25 C 72.5 18.8125 70.5625 16.875 68.125 16.875 Z M 11.875 16.875 "/>
<path style=" stroke:none;fill-rule:nonzero;fill:rgb(100%,100%,100%);fill-opacity:1;" d="M 5.625 32.5 C 5.5 32.5 5.375 32.5 5.25 32.4375 C 5.125 32.4375 5 32.375 4.875 32.3125 C 4.75 32.25 4.6875 32.1875 4.5625 32.125 C 4.4375 32.0625 4.375 32 4.3125 31.875 C 3.9375 31.625 3.75 31.125 3.75 30.625 C 3.75 30.125 3.9375 29.625 4.3125 29.3125 C 4.375 29.25 4.5 29.125 4.5625 29.0625 C 4.6875 29 4.75 28.9375 4.875 28.875 C 5 28.8125 5.125 28.8125 5.25 28.75 C 5.875 28.625 6.5 28.8125 6.9375 29.25 C 7.3125 29.625 7.5 30.0625 7.5 30.5625 C 7.5 31.0625 7.3125 31.5625 6.9375 31.875 C 6.625 32.3125 6.125 32.5 5.625 32.5 Z M 5.625 32.5 "/>
<path style=" stroke:none;fill-rule:nonzero;fill:rgb(0%,0%,0%);fill-opacity:1;" d="M 15.644531 39.257812 L 15.644531 40.398438 L 11.058594 40.398438 L 11.058594 44.152344 L 16.382812 44.152344 L 16.382812 45.289062 L 9.664062 45.289062 L 9.664062 34.710938 L 16.3125 34.710938 L 16.3125 35.859375 L 11.058594 35.859375 L 11.058594 39.257812 Z M 19.027344 34.710938 L 21.574219 38.765625 L 24.109375 34.710938 L 25.75 34.710938 L 22.410156 39.957031 L 25.835938 45.289062 L 24.175781 45.289062 L 21.574219 41.164062 L 18.960938 45.289062 L 17.308594 45.289062 L 20.738281 39.957031 L 17.386719 34.710938 Z M 31.34375 41.148438 L 28.847656 41.148438 L 28.847656 45.289062 L 27.453125 45.289062 L 27.453125 34.710938 L 31.355469 34.710938 C 32.515625 34.710938 33.421875 35.003906 34.078125 35.597656 C 34.734375 36.1875 35.0625 36.96875 35.0625 37.941406 C 35.0625 38.972656 34.742188 39.761719 34.101562 40.3125 C 33.457031 40.867188 32.539062 41.148438 31.34375 41.148438 Z M 28.847656 35.859375 L 28.847656 40.007812 L 31.355469 40.007812 C 32.101562 40.007812 32.675781 39.832031 33.070312 39.480469 C 33.46875 39.132812 33.667969 38.621094 33.667969 37.957031 C 33.667969 37.328125 33.46875 36.824219 33.070312 36.445312 C 32.675781 36.070312 32.128906 35.875 31.433594 35.859375 Z M 43.019531 45.289062 L 40.722656 41.011719 L 38.238281 41.011719 L 38.238281 45.289062 L 36.835938 45.289062 L 36.835938 34.710938 L 40.335938 34.710938 C 41.53125 34.710938 42.449219 34.980469 43.089844 35.523438 C 43.734375 36.066406 44.054688 36.855469 44.054688 37.890625 C 44.054688 38.550781 43.875 39.125 43.519531 39.617188 C 43.160156 40.105469 42.664062 40.472656 42.03125 40.714844 L 44.519531 45.203125 L 44.519531 45.289062 Z M 38.238281 35.859375 L 38.238281 39.867188 L 40.382812 39.867188 C 41.074219 39.867188 41.625 39.6875 42.035156 39.332031 C 42.445312 38.972656 42.648438 38.492188 42.648438 37.890625 C 42.648438 37.238281 42.453125 36.734375 42.0625 36.386719 C 41.675781 36.039062 41.113281 35.859375 40.375 35.859375 Z M 51.988281 39.257812 L 51.988281 40.398438 L 47.402344 40.398438 L 47.402344 44.152344 L 52.726562 44.152344 L 52.726562 45.289062 L 46.007812 45.289062 L 46.007812 34.710938 L 52.65625 34.710938 L 52.65625 35.859375 L 47.402344 35.859375 L 47.402344 39.257812 Z M 57.582031 40.574219 C 56.386719 40.230469 55.515625 39.808594 54.96875 39.304688 C 54.425781 38.804688 54.15625 38.1875 54.15625 37.449219 C 54.15625 36.613281 54.488281 35.925781 55.15625 35.382812 C 55.820312 34.839844 56.683594 34.566406 57.75 34.566406 C 58.480469 34.566406 59.128906 34.703125 59.695312 34.984375 C 60.265625 35.265625 60.707031 35.652344 61.015625 36.148438 C 61.328125 36.644531 61.484375 37.183594 61.484375 37.769531 L 60.085938 37.769531 C 60.085938 37.132812 59.882812 36.628906 59.472656 36.261719 C 59.066406 35.898438 58.492188 35.714844 57.75 35.714844 C 57.0625 35.714844 56.527344 35.863281 56.140625 36.164062 C 55.757812 36.46875 55.566406 36.890625 55.566406 37.425781 C 55.566406 37.855469 55.75 38.222656 56.113281 38.523438 C 56.480469 38.820312 57.101562 39.09375 57.980469 39.335938 C 58.859375 39.585938 59.546875 39.859375 60.042969 40.15625 C 60.539062 40.453125 60.910156 40.800781 61.152344 41.199219 C 61.390625 41.59375 61.507812 42.0625 61.507812 42.601562 C 61.507812 43.457031 61.175781 44.144531 60.503906 44.664062 C 59.839844 45.175781 58.945312 45.433594 57.824219 45.433594 C 57.097656 45.433594 56.417969 45.296875 55.789062 45.015625 C 55.160156 44.742188 54.671875 44.359375 54.332031 43.871094 C 53.992188 43.386719 53.820312 42.839844 53.820312 42.226562 L 55.222656 42.226562 C 55.222656 42.863281 55.457031 43.367188 55.933594 43.738281 C 56.402344 44.109375 57.035156 44.296875 57.824219 44.296875 C 58.558594 44.296875 59.125 44.144531 59.519531 43.84375 C 59.910156 43.542969 60.105469 43.132812 60.105469 42.617188 C 60.105469 42.097656 59.921875 41.695312 59.558594 41.410156 C 59.199219 41.128906 58.539062 40.851562 57.582031 40.574219 Z M 66.417969 40.574219 C 65.21875 40.230469 64.347656 39.808594 63.800781 39.304688 C 63.257812 38.804688 62.984375 38.1875 62.984375 37.449219 C 62.984375 36.613281 63.316406 35.925781 63.984375 35.382812 C 64.648438 34.839844 65.515625 34.566406 66.582031 34.566406 C 67.308594 34.566406 67.957031 34.703125 68.527344 34.984375 C 69.09375 35.265625 69.535156 35.652344 69.847656 36.148438 C 70.160156 36.644531 70.320312 37.183594 70.320312 37.769531 L 68.914062 37.769531 C 68.914062 37.132812 68.710938 36.628906 68.304688 36.261719 C 67.898438 35.898438 67.324219 35.714844 66.582031 35.714844 C 65.894531 35.714844 65.355469 35.863281 64.96875 36.164062 C 64.585938 36.46875 64.394531 36.890625 64.394531 37.425781 C 64.394531 37.855469 64.574219 38.222656 64.941406 38.523438 C 65.308594 38.820312 65.929688 39.09375 66.8125 39.335938 C 67.6875 39.585938 68.378906 39.859375 68.875 40.15625 C 69.371094 40.453125 69.742188 40.800781 69.980469 41.199219 C 70.21875 41.59375 70.335938 42.0625 70.335938 42.601562 C 70.335938 43.457031 70.003906 44.144531 69.335938 44.664062 C 68.667969 45.175781 67.773438 45.433594 66.652344 45.433594 C 65.929688 45.433594 65.25 45.296875 64.621094 45.015625 C 63.992188 44.742188 63.503906 44.359375 63.160156 43.871094 C 62.820312 43.386719 62.648438 42.839844 62.648438 42.226562 L 64.054688 42.226562 C 64.054688 42.863281 64.289062 43.367188 64.761719 43.738281 C 65.234375 44.109375 65.867188 44.296875 66.652344 44.296875 C 67.390625 44.296875 67.957031 44.144531 68.347656 43.84375 C 68.742188 43.542969 68.9375 43.132812 68.9375 42.617188 C 68.9375 42.097656 68.753906 41.695312 68.394531 41.410156 C 68.027344 41.128906 67.367188 40.851562 66.417969 40.574219 Z M 66.417969 40.574219 "/>
</g>
</svg>
