<?xml version="1.0" encoding="UTF-8"?>
<svg xmlns="http://www.w3.org/2000/svg" xmlns:xlink="http://www.w3.org/1999/xlink" viewBox="0 0 48 48" width="48px" height="48px">
<g id="surface12900398">
<path style=" stroke:none;fill-rule:nonzero;fill:rgb(94.509804%,76.862746%,5.882353%);fill-opacity:1;" d="M 24 1.921875 C 11.820312 1.921875 1.921875 11.820312 1.921875 24 C 1.921875 36.179688 11.820312 46.078125 24 46.078125 C 36.179688 46.078125 46.078125 36.179688 46.078125 24 C 46.078125 11.820312 36.179688 1.921875 24 1.921875 Z M 24 3.839844 C 35.144531 3.839844 44.160156 12.855469 44.160156 24 C 44.160156 24.070312 44.15625 24.136719 44.15625 24.203125 C 43.539062 24.148438 42.832031 24.09375 41.929688 24.0625 C 40.652344 24.015625 39.046875 24.03125 37.222656 24.121094 C 37.289062 23.648438 37.335938 23.171875 37.339844 22.683594 C 37.433594 20.882812 36.828125 19.203125 35.847656 17.71875 C 36.082031 16.898438 36.363281 15.855469 36.429688 14.671875 C 36.511719 13.324219 36.394531 11.828125 35.3125 10.820312 L 35.035156 10.558594 L 34.65625 10.558594 C 32.078125 10.558594 30.316406 11.636719 29.238281 12.492188 C 27.683594 11.890625 25.933594 11.519531 24 11.519531 C 22.058594 11.519531 20.289062 11.894531 18.667969 12.496094 C 17.59375 11.640625 15.828125 10.558594 13.25 10.558594 L 12.871094 10.558594 L 12.59375 10.816406 C 11.539062 11.796875 11.441406 13.25 11.507812 14.589844 C 11.566406 15.773438 11.828125 16.851562 12.0625 17.710938 C 11.0625 19.222656 10.464844 20.949219 10.464844 22.65625 C 10.464844 23.148438 10.511719 23.625 10.578125 24.097656 C 8.84375 24.015625 7.296875 24 6.070312 24.046875 C 5.167969 24.078125 4.460938 24.128906 3.84375 24.1875 C 3.84375 24.125 3.839844 24.0625 3.839844 24 C 3.839844 12.855469 12.855469 3.839844 24 3.839844 Z M 13.820312 12.605469 C 15.757812 12.789062 17.214844 13.652344 17.890625 14.253906 L 18.339844 14.652344 L 18.894531 14.425781 C 20.414062 13.800781 22.105469 13.441406 24 13.441406 C 25.894531 13.441406 27.589844 13.800781 28.992188 14.414062 L 29.554688 14.664062 L 30.011719 14.253906 C 30.6875 13.652344 32.148438 12.789062 34.085938 12.605469 C 34.34375 13.03125 34.566406 13.640625 34.511719 14.558594 C 34.449219 15.660156 34.152344 16.855469 33.933594 17.570312 L 33.789062 18.03125 L 34.074219 18.421875 C 35.023438 19.71875 35.507812 21.121094 35.425781 22.601562 L 35.425781 22.65625 C 35.425781 25.050781 34.5625 26.96875 32.722656 28.390625 C 30.886719 29.808594 27.988281 30.71875 23.90625 30.71875 C 19.820312 30.71875 16.917969 29.808594 15.082031 28.390625 C 13.246094 26.96875 12.382812 25.050781 12.382812 22.65625 C 12.382812 21.25 12.890625 19.703125 13.828125 18.421875 L 14.109375 18.042969 L 13.976562 17.585938 C 13.753906 16.828125 13.480469 15.605469 13.425781 14.496094 C 13.382812 13.578125 13.597656 12.996094 13.820312 12.605469 Z M 8.53125 24.980469 C 9.207031 24.988281 9.984375 25.027344 10.765625 25.066406 C 10.839844 25.363281 10.921875 25.660156 11.027344 25.945312 C 7.851562 26.011719 5.476562 26.332031 4.011719 26.605469 C 3.949219 26.125 3.902344 25.640625 3.875 25.152344 C 4.957031 25.046875 6.480469 24.953125 8.53125 24.980469 Z M 39.46875 24.996094 C 41.519531 24.96875 43.042969 25.0625 44.125 25.167969 C 44.097656 25.648438 44.046875 26.128906 43.988281 26.601562 C 42.472656 26.324219 40.03125 26.003906 36.773438 25.953125 C 36.875 25.671875 36.960938 25.378906 37.03125 25.085938 C 37.890625 25.042969 38.730469 25.003906 39.46875 24.996094 Z M 11.4375 26.898438 C 12.007812 28.046875 12.828125 29.070312 13.910156 29.90625 C 15.386719 31.050781 17.308594 31.851562 19.65625 32.277344 C 19.351562 32.59375 19.070312 32.941406 18.824219 33.304688 L 18.765625 33.253906 C 18.769531 33.25 18.289062 33.492188 17.566406 33.554688 C 16.847656 33.621094 15.957031 33.601562 15.167969 33.601562 C 13.992188 33.601562 13.476562 33.042969 12.648438 32.03125 C 12.1875 31.414062 11.628906 30.914062 11.085938 30.535156 C 10.53125 30.144531 10.058594 29.871094 9.46875 29.773438 L 9.390625 29.761719 L 9.3125 29.761719 C 8.863281 29.761719 8.429688 29.792969 8.023438 30.253906 C 7.824219 30.484375 7.683594 30.914062 7.773438 31.277344 C 7.863281 31.640625 8.09375 31.863281 8.296875 32 C 9.609375 32.875 9.84375 34.605469 10.664062 36.144531 C 11.433594 37.675781 13.089844 38.398438 14.785156 38.398438 L 17.28125 38.398438 L 17.28125 43.011719 C 10.527344 40.628906 5.4375 34.757812 4.160156 27.554688 C 5.628906 27.277344 8.089844 26.945312 11.4375 26.898438 Z M 36.367188 26.90625 C 39.789062 26.933594 42.316406 27.269531 43.84375 27.550781 C 42.566406 34.753906 37.472656 40.628906 30.71875 43.011719 L 30.71875 38.015625 C 30.71875 36.496094 30.21875 34.816406 29.351562 33.417969 C 29.085938 32.992188 28.777344 32.589844 28.429688 32.230469 C 30.652344 31.792969 32.480469 31.007812 33.898438 29.90625 C 34.980469 29.074219 35.796875 28.050781 36.367188 26.90625 Z M 22.75 32.734375 L 25.441406 32.734375 C 26.21875 32.734375 27.054688 33.359375 27.71875 34.429688 C 28.386719 35.503906 28.800781 36.945312 28.800781 38.015625 L 28.800781 43.582031 C 27.261719 43.957031 25.65625 44.160156 24 44.160156 C 22.34375 44.160156 20.738281 43.957031 19.199219 43.582031 L 19.199219 38.015625 C 19.199219 36.96875 19.648438 35.53125 20.359375 34.453125 C 21.070312 33.375 21.972656 32.734375 22.75 32.734375 Z M 11.816406 33.871094 C 12.648438 34.730469 13.652344 35.519531 15.167969 35.519531 C 15.917969 35.519531 16.851562 35.546875 17.738281 35.46875 C 17.742188 35.46875 17.742188 35.464844 17.746094 35.464844 C 17.628906 35.800781 17.542969 36.140625 17.46875 36.480469 L 14.785156 36.480469 C 13.601562 36.480469 12.765625 36.050781 12.378906 35.28125 L 12.371094 35.269531 L 12.367188 35.257812 C 12.207031 34.964844 12 34.378906 11.816406 33.871094 Z M 11.816406 33.871094 "/>
</g>
</svg>
