<?xml version="1.0" encoding="UTF-8"?>
<svg xmlns="http://www.w3.org/2000/svg" xmlns:xlink="http://www.w3.org/1999/xlink" viewBox="0 0 30 30" width="30px" height="30px">
<g id="surface3604499">
<path style=" stroke:none;fill-rule:nonzero;fill:rgb(80.000001%,80.000001%,80.000001%);fill-opacity:1;" d="M 15 2.5 C 8.109375 2.5 2.5 8.109375 2.5 15 C 2.5 21.890625 8.109375 27.5 15 27.5 C 21.890625 27.5 27.5 21.890625 27.5 15 C 27.5 8.109375 21.890625 2.5 15 2.5 Z M 15 4.375 C 20.878906 4.375 25.625 9.121094 25.625 15 C 25.625 19.789062 22.472656 23.828125 18.125 25.15625 L 18.125 21.960938 C 18.125 20.765625 17.4375 19.742188 16.441406 19.234375 C 18.402344 18.859375 20.019531 17.75 20.777344 16.253906 C 21.539062 14.761719 21.351562 13.0625 20.273438 11.699219 C 20.550781 10.847656 20.859375 9.351562 20.125 8.171875 C 18.707031 8.171875 17.789062 9.144531 17.355469 9.75 C 16.605469 9.503906 15.808594 9.378906 15 9.375 C 14.191406 9.375 13.390625 9.5 12.644531 9.746094 C 12.207031 9.140625 11.292969 8.171875 9.875 8.171875 C 9.03125 9.523438 9.554688 10.976562 9.832031 11.570312 C 8.683594 12.929688 8.4375 14.652344 9.179688 16.183594 C 9.921875 17.714844 11.554688 18.855469 13.550781 19.238281 C 12.734375 19.65625 12.125 20.421875 11.9375 21.347656 L 11.113281 21.347656 C 10.304688 21.347656 9.988281 21.019531 9.550781 20.460938 C 9.117188 19.90625 8.652344 19.535156 8.09375 19.378906 C 7.792969 19.347656 7.589844 19.574219 7.851562 19.777344 C 8.738281 20.382812 8.800781 21.371094 9.15625 22.019531 C 9.480469 22.601562 10.144531 23.125 10.894531 23.125 L 11.875 23.125 L 11.875 25.15625 C 7.527344 23.828125 4.375 19.789062 4.375 15 C 4.375 9.121094 9.121094 4.375 15 4.375 Z M 15 4.375 "/>
</g>
</svg>
