<?xml version="1.0" encoding="UTF-8"?>
<svg xmlns="http://www.w3.org/2000/svg" xmlns:xlink="http://www.w3.org/1999/xlink" viewBox="0 0 30 30" width="30px" height="30px">
<g id="surface3594778">
<path style=" stroke:none;fill-rule:nonzero;fill:rgb(94.509804%,76.862746%,5.882353%);fill-opacity:1;" d="M 6.25 3.75 C 4.867188 3.75 3.75 4.867188 3.75 6.25 L 3.75 23.75 C 3.75 25.132812 4.867188 26.25 6.25 26.25 L 23.75 26.25 C 25.132812 26.25 26.25 25.132812 26.25 23.75 L 26.25 6.25 C 26.25 4.867188 25.132812 3.75 23.75 3.75 Z M 6.25 6.25 L 23.75 6.25 L 23.75 23.75 L 6.25 23.75 Z M 9.722656 7.894531 C 8.652344 7.894531 8.011719 8.539062 8.011719 9.398438 C 8.011719 10.253906 8.652344 10.894531 9.617188 10.894531 C 10.6875 10.894531 11.332031 10.253906 11.332031 9.398438 C 11.332031 8.539062 10.6875 7.894531 9.722656 7.894531 Z M 8.09375 12.5 L 8.09375 21.25 L 11.25 21.25 L 11.25 12.5 Z M 13.851562 12.5 L 13.851562 21.25 L 17.007812 21.25 L 17.007812 16.46875 C 17.007812 15.042969 18.023438 14.839844 18.328125 14.839844 C 18.632812 14.839844 19.449219 15.144531 19.449219 16.46875 L 19.449219 21.25 L 22.5 21.25 L 22.5 16.46875 C 22.5 13.722656 21.28125 12.5 19.753906 12.5 C 18.226562 12.5 17.414062 13.007812 17.007812 13.71875 L 17.007812 12.5 Z M 13.851562 12.5 "/>
</g>
</svg>
